<?xml version="1.0" encoding="UTF-8" standalone="no"?>
<svg
   version="1.1"
   x="0"
   y="0"
   width="4700"
   height="845.28802"
   viewBox="0 0 4700 845.288"
   id="svg50"
   sodipodi:docname="logo-text-bw.svg"
   inkscape:version="1.4.3 (0d15f75, 2025-12-25)"
   xmlns:inkscape="http://www.inkscape.org/namespaces/inkscape"
   xmlns:sodipodi="http://sodipodi.sourceforge.net/DTD/sodipodi-0.dtd"
   xmlns="http://www.w3.org/2000/svg"
   xmlns:svg="http://www.w3.org/2000/svg">
  <defs
     id="defs50" />
  <sodipodi:namedview
     id="namedview50"
     pagecolor="#ffffff"
     bordercolor="#000000"
     borderopacity="0.25"
     inkscape:showpageshadow="2"
     inkscape:pageopacity="0.0"
     inkscape:pagecheckerboard="0"
     inkscape:deskcolor="#d1d1d1"
     showgrid="false"
     inkscape:zoom="0.32"
     inkscape:cx="1876.5625"
     inkscape:cy="1185.9375"
     inkscape:window-width="1960"
     inkscape:window-height="1080"
     inkscape:window-x="0"
     inkscape:window-y="30"
     inkscape:window-maximized="0"
     inkscape:current-layer="svg50" />
  <g
     id="g50"
     transform="matrix(0.99411307,0,0,0.99411307,43.733993,5.5615335)">
    <path
       d="m 130.343,1.112 c -13.3,2.2 -23.4,5.4 -35.1,11.1 -36.1,17.5 -62.4,51.3 -70.9,91 -0.9,3.8 -1.8,13.1 -2.1,20.5 -1,22.5 3.2,42.6 13.1,62.5 6.6,13.5 15.4,25.2 27.3,36.7 l 9.1,8.8 -7.4,15.2 c -20.7,42.8 -33,85.9 -38,133.3 -1.8,16.5 -2,57 -0.5,73.6 3.6,39 13.3,78.4 28.1,113.8 l 4.3,10.5 -4.9,4 c -29,23.9 -48.4,56.2 -53.8,89.6 -5.3,32.6 -1.4,59.8 12.8,88 21.5,42.7 61.2,72.6 110.5,83.1 13.7,3 44.4,3.3 58.5,0.7 25.3,-4.8 47.6,-14.4 67.3,-29.2 8.1,-6 20.1,-17.1 24.8,-22.9 l 3,-3.7 14.5,6.9 c 108.6,51.8 229.1,52 337.7,0.5 7.3,-3.5 17.4,-8.6 22.3,-11.5 5,-2.8 9.1,-5 9.3,-4.8 0.1,0.2 1.9,2.9 3.9,6 9,13.8 23.8,28.1 38.7,37.6 37.7,24.1 84.8,26.8 125.5,7.3 13.2,-6.4 23.4,-13.7 35.1,-25.4 19.6,-19.5 31.2,-41.1 37.1,-68.6 2.7,-12.7 2.4,-38.4 -0.6,-50.5 -7.6,-31.5 -21.9,-55.5 -44,-73.9 l -7.9,-6.6 6.4,-12.8 c 20,-40.8 33.4,-87.4 38.6,-135.2 1.6,-14.6 1.6,-58.9 0,-74 -3.6,-33.8 -11.9,-69.4 -23.2,-99.5 -6.8,-18.2 -14.1,-35.1 -19,-44.3 l -4,-7.3 5.8,-5.2 c 11.8,-10.7 22,-23.1 28.7,-35.2 13,-23.1 18.2,-53.8 13.9,-82.3 -5.8,-39.6 -31.6,-75.9 -67.4,-95 -38.8,-20.7 -87.5,-18.1 -124.2,6.6 -12.4,8.4 -26.5,22.1 -34.1,33.2 -1.6,2.5 -3.1,4.7 -3.3,4.8 -0.1,0.2 -3.3,-1.4 -7.1,-3.6 -38.7,-22.5 -88.3,-40.4 -133.8,-48.1 -37.6,-6.4 -91.8,-6.7 -128.2,-0.6 -44.9,7.5 -89.5,22.8 -129,44.3 -7.2,3.9 -13.6,7.3 -14.1,7.4 -0.5,0.2 -3.1,-2.6 -5.7,-6.2 -15,-20.4 -40.4,-38.9 -64,-46.4 -15.3,-4.8 -39,-6.7 -54,-4.2 z m 28,28.6 c 16,1.9 32.9,8.7 45.9,18.5 25.7,19.3 39.7,48 39.7,81.5 0.1,41 -23.9,76.6 -61.8,91.9 -34.4,13.9 -76,4.9 -102.5,-22.2 -19.8,-20.1 -31,-52.2 -27.9,-79.7 2.7,-24.5 11.5,-43.9 27.5,-60.8 14.8,-15.6 36.1,-26.3 57.9,-29.1 8.9,-1.2 11.2,-1.2 21.2,-0.1 z m 634.2,2.1 c 17.5,4.4 31.6,12.2 44.2,24.3 31,29.9 39.6,76.9 21.2,116.1 -12.6,27 -37.5,47.1 -66.9,54.2 -8.7,2.1 -29.1,2.1 -38.8,-0.1 -31.2,-6.8 -56.4,-27.5 -69.1,-56.7 -5.5,-12.8 -7.4,-21.7 -8,-37.4 -0.5,-12.6 -0.3,-15.2 2.1,-25.3 4.5,-20 15.5,-39.6 29.4,-52.4 23,-21 57.1,-30.1 85.9,-22.7 z m -292.7,0.5 c 35.6,4 68.3,12.4 102.5,26.5 13.4,5.4 36.2,16.7 45,22.2 2.8,1.7 5.1,3.1 5.2,3.2 0.1,0 -0.9,4.1 -2.2,8.9 -1.3,4.9 -3,12.3 -3.6,16.6 l -1.2,7.7 -11.1,1.8 c -21.8,3.5 -49.3,11.1 -68.6,19 -38.6,15.9 -64.4,32.8 -91.6,60 l -15.1,15.2 -5.4,-6.5 c -12.3,-14.8 -37.7,-35.7 -58.5,-48.1 -32.7,-19.6 -68.9,-32.7 -109.1,-39.5 l -12.6,-2.1 -1.7,-10 c -0.9,-5.5 -2.4,-12.5 -3.3,-15.7 -1,-3.1 -1.7,-6 -1.7,-6.5 0,-2.1 28,-17 47.5,-25.3 39.9,-17 85.5,-27.2 131,-29.4 12.3,-0.6 40.6,0.5 54.5,2 z m -209.7,114.9 c 25.6,4.7 52.3,13.7 75.7,25.4 24.6,12.3 41.2,24.2 60,43.1 l 12.5,12.5 -37.5,0.5 -37.5,0.5 -6.5,3.2 c -3.6,1.8 -8.6,5.4 -11.2,8 -3.1,3.2 -13.1,19.2 -30.9,49.3 -14.4,24.5 -32.7,55.5 -40.7,69 -8,13.5 -16.2,27.4 -18.3,31 -6.7,11.5 -5.9,11.1 -11.6,6.2 -24.9,-20.8 -49.2,-56.9 -63.8,-94.6 -4,-10.4 -12.5,-40.3 -12.5,-43.9 0,-0.7 4.5,-2.3 11,-3.9 38.2,-9.2 73,-41.2 87.1,-79.9 2.7,-7.4 4.4,-14.2 6.3,-25.2 0.8,-4.5 0.3,-4.5 17.9,-1.2 z m 355.7,-2.1 c 0,2.4 3.4,16.9 5.5,23.6 6.1,19.3 16.6,36.2 32,51.5 9.8,9.8 22.9,19.7 33,24.8 6.9,3.4 21,8.3 28.4,9.8 7.3,1.4 7.2,0.9 3.2,16.9 -10.2,40.2 -28.4,75.6 -53.8,104.8 -8.4,9.6 -23.1,23.4 -24.5,23 -0.8,-0.3 -6.8,-10.3 -31.8,-52.8 -9.5,-16.2 -21.9,-37.2 -27.5,-46.5 -5.5,-9.4 -15,-25.5 -21,-35.8 -12.7,-21.7 -17.5,-27.4 -27.2,-32 l -6.8,-3.2 -36.7,-0.3 c -20.3,-0.2 -36.8,-0.7 -36.8,-1.2 0,-0.5 4.6,-5.5 10.3,-11.2 34,-34.2 81.3,-58.4 134.7,-68.8 14.2,-2.8 19,-3.4 19,-2.6 z m -538.3,105.5 c 7.8,2.8 18.3,5.2 29.9,6.6 l 5.2,0.7 0.7,4.6 c 0.4,2.6 2.2,10.7 4.1,18 12.7,49.3 40.1,96.3 75.9,130.3 l 8,7.7 -9.2,8.6 c -15.1,14.2 -29.9,32.4 -41.2,50.4 -11.8,18.9 -25.2,47.6 -29.7,64 l -1.6,5.8 -12.2,1.2 c -18,1.7 -34.1,6.1 -54.2,14.8 -1.4,0.6 -8.7,-19 -14.9,-39.6 -11.5,-38.6 -16.9,-84.6 -14.5,-122.5 2.2,-34.9 6.6,-60.3 15.6,-89.3 8.4,-27.2 25.3,-65.8 28.3,-64.8 0.9,0.3 5.3,1.8 9.8,3.5 z m 717.8,1.1 c 6.4,12.6 15.2,34 20.5,49.9 13.8,40.9 19.3,74.6 19.3,118.1 0.1,55.9 -10.4,102.8 -35.7,159.9 -2.6,5.8 -4.8,10.6 -5,10.8 -0.1,0.2 -3.9,-1 -8.4,-2.7 -9.6,-3.5 -26.1,-7 -32.9,-7 h -5 l -1.7,-8.3 c -6.7,-31 -21.1,-67.3 -36.7,-92.2 -12.8,-20.5 -29.9,-41.4 -45.7,-56 l -6.3,-5.8 7.4,-6.8 c 16.7,-15.3 36.9,-41.3 49.2,-63.4 14.1,-25.4 26.6,-59.3 30.6,-82.8 l 1.3,-7.5 9.3,-1.2 c 10.4,-1.3 24.5,-4.8 31.3,-7.9 2.5,-1.1 4.8,-2 5.2,-2 0.4,-0.1 1.9,2.1 3.3,4.9 z m -275.7,7.4 c 4.4,2.3 6.1,4.8 21.7,31.6 8.2,14 26.8,45.5 41.4,70 33.6,56.4 32.8,54.9 31.2,60.1 -0.7,2.3 -7.7,15 -15.6,28.2 -7.8,13.3 -21.7,36.8 -30.7,52.2 -40.6,69.2 -43.2,73.6 -46.4,75.6 -3.1,1.9 -5.5,1.9 -92.9,1.7 l -89.7,-0.3 -2.8,-3.2 c -1.6,-1.8 -7.5,-11 -13.1,-20.5 -5.6,-9.5 -11.4,-19.3 -12.9,-21.8 -1.5,-2.5 -6.9,-11.7 -12,-20.5 -5.2,-8.8 -11.9,-20.3 -15.1,-25.5 -17.5,-29.2 -36.4,-61.9 -37.5,-64.9 -1.5,-4.5 -0.4,-8.4 4.8,-17 4.7,-7.6 23.4,-39.1 56.1,-94.6 28.5,-48.5 28.4,-48.4 32.1,-50.6 3,-1.8 6.9,-1.9 90.9,-1.9 73.5,0 88.2,0.2 90.5,1.4 z m -295.5,184.3 c 5.1,9.2 72.8,124.5 81.1,138.3 6.4,10.6 10.9,15.7 17.6,20 8.9,5.6 12,6 50.7,6 19.4,0 35.3,0.4 35.3,0.8 0,0.8 -9.3,10 -18.2,17.9 -19.1,17 -46.6,33.4 -74.8,44.6 -10.9,4.4 -33.2,11.7 -35.6,11.7 -0.6,0 -1.4,-2.6 -1.7,-5.8 -1,-9.1 -5.5,-24.8 -10.4,-36.4 -17.1,-40.7 -53.6,-72.9 -97.9,-86.3 -6.3,-1.9 -13.9,-3.8 -16.8,-4.1 -8.1,-1 -8.4,-1.3 -6.2,-7.6 12.9,-36.5 35.2,-71.7 61.4,-97.1 5.5,-5.3 10.3,-9.7 10.6,-9.7 0.3,0 2.5,3.5 4.9,7.7 z m 426.9,3 c 32.8,32.3 56.5,74.1 68.3,120.3 3.9,15.5 4.7,13.9 -8,17 -6,1.5 -13.4,3.7 -16.2,4.9 -31.3,12.5 -58.9,38.8 -72.2,68.6 -3.5,7.8 -7.6,20.7 -9.5,29.7 -0.8,3.5 -1.2,3.5 -18.3,-0.2 -28.4,-6.2 -52.3,-14.7 -76.9,-27.4 -23.8,-12.3 -45.2,-27.6 -61.3,-44 l -7.4,-7.5 37.9,-0.3 37.9,-0.3 5.8,-2.7 c 7.5,-3.5 13,-7.9 16.6,-13.2 1.5,-2.2 11.3,-18.5 21.6,-36.1 10.3,-17.6 22.8,-38.8 27.6,-47 4.9,-8.3 16.4,-27.9 25.6,-43.7 9.3,-15.8 17,-28.8 17.2,-28.8 0.2,0 5.3,4.8 11.3,10.7 z m -500.2,131.4 c 50,10.2 88.1,47.3 98.6,95.9 1.4,6.4 1.9,12.4 1.8,24.5 -0.1,13.9 -0.4,17.3 -2.7,25.8 -7.1,26.5 -23.2,50.3 -45.6,67.3 -4.7,3.6 -14.3,9.4 -21.3,12.8 -19.1,9.6 -36.3,13.6 -57.9,13.6 -31.5,0 -58.6,-9.6 -83.4,-29.6 -55.3,-44.5 -60.6,-121.9 -11.7,-172.6 21.8,-22.6 48.3,-35.8 79.8,-39.8 10.5,-1.3 30.5,-0.3 42.4,2.1 z m 618.5,32.3 c 10.7,3.2 23.2,8.9 31.4,14.5 6.7,4.6 17.7,14.4 19.2,17.2 1.9,3.6 -1,2 -8.1,-4.5 -13,-12 -27.6,-20.1 -44.7,-24.8 -6.6,-1.9 -10.5,-2.2 -25.3,-2.2 -14.8,0 -18.7,0.4 -25.2,2.2 -17.5,4.8 -31.4,12.5 -44.5,24.6 -6.6,6.2 -9.3,7.8 -9.3,5.7 0,-1.4 13.4,-13.6 19.7,-17.9 11.7,-8 28.3,-14.8 41.7,-17.2 2.8,-0.5 12.1,-0.7 20.6,-0.6 13.3,0.3 16.8,0.7 24.5,3 z m -8.7,5.6 c 10.8,2.2 19.6,5.4 28.1,10.1 6.5,3.6 17.8,11.8 20.5,14.8 l 1.9,2.1 h -69.4 l -69.4,-0.1 4.5,-4 c 13.3,-11.9 32,-20.9 49.4,-23.8 9.4,-1.6 24.3,-1.2 34.4,0.9 z m -320.4,18.5 c 18,17.4 36.4,31.3 57,43 29.7,16.8 67,30.1 101.1,36 5.5,0.9 10.7,2 11.5,2.5 1,0.5 1.7,3.1 2.2,8.5 0.4,4.3 1.9,12.5 3.3,18.3 1.5,5.7 2.4,10.6 2.1,10.9 -0.3,0.3 -6.5,3.7 -13.8,7.5 -44.4,23 -87.6,36.6 -134.8,42.4 -19,2.4 -56.7,2.3 -76.5,0 -34.8,-4.1 -63.9,-11.3 -94.5,-23.3 -10,-4 -33.7,-14.7 -34.7,-15.7 -0.3,-0.2 1.1,-3.5 3,-7.2 4.7,-9.4 9.5,-24.9 11.5,-37.1 l 1.7,-10.2 6.5,-1.6 c 3.6,-0.9 12,-3.4 18.7,-5.6 46.4,-15.1 84,-37.7 115.3,-69.3 5.2,-5.3 9.5,-9.6 9.5,-9.6 0,0 4.9,4.7 10.9,10.5 z m 295.8,15.2 c -0.5,1 -1.2,3.8 -1.6,6.3 -0.9,6.4 2.6,13.4 6.9,13.7 3.7,0.4 5.6,-1.2 7.3,-5.8 1.3,-3.8 0.7,-12.4 -1.1,-14.7 -0.7,-0.9 6.2,-1.2 33.9,-1.1 19.2,0.1 33.6,0.4 31.9,0.6 -1.6,0.2 -5.9,1.7 -9.5,3.3 -3.6,1.6 -11.7,4.5 -18.1,6.4 -6.3,2 -12.4,4.3 -13.5,5.1 -1,0.8 -3.8,1.5 -6.2,1.5 -2.3,0 -5.9,0.7 -8,1.6 -9.9,4.4 -23.5,4.6 -30.8,0.6 -1.2,-0.6 -4.8,-1.5 -8,-1.8 -3.3,-0.4 -7.9,-1.7 -10.4,-2.9 -2.5,-1.2 -7.9,-3.2 -12,-4.4 -4.1,-1.2 -11.4,-3.8 -16.2,-5.7 -8.6,-3.3 -12.8,-4.2 -12.8,-2.6 0,0.5 1.5,1.6 3.3,2.5 2.8,1.4 2.9,1.6 1,1.6 -1.3,0.1 -2.3,0.5 -2.3,0.9 0,0.9 6.1,3.7 10,4.5 1.4,0.4 5.8,2.7 9.8,5.2 3.9,2.6 9.8,5.5 12.9,6.5 3.2,1 8.9,2.9 12.7,4.3 l 6.9,2.4 1.8,7.1 c 1,3.9 2.4,8.4 3.3,9.9 1.5,3.1 1.5,13.2 -0.3,33.3 l -0.8,9.5 -0.2,-7.5 -0.2,-7.5 -2.6,5 c -1.4,2.7 -3.8,8.6 -5.3,13.1 -2.7,7.8 -6.8,15.5 -9,16.9 -1.8,1.1 -5.7,9.7 -8.5,18.8 -2.9,9.7 -4.3,11 -10.5,10.6 -2.2,-0.2 -4.2,-0.1 -4.4,0.2 -0.9,0.8 4.3,5.3 9.6,8.3 5,2.9 5.2,2.8 6.3,-2.1 1,-4.7 5.8,-14.2 9.5,-18.8 1.7,-2.2 4.3,-6.3 5.6,-9.2 1.4,-2.9 4.3,-7.4 6.4,-10 3.7,-4.4 4,-5.3 4.1,-11.3 l 0.2,-6.5 0.9,8 c 0.5,4.4 0.6,13.8 0.3,21 -0.4,9.6 -0.2,15.1 1,21 2.1,11 2,12.2 -1.7,15.8 -1.8,1.8 -3.1,3.5 -3,3.9 0.6,2.3 -18.9,-4 -28.6,-9.3 -9.8,-5.2 -17.4,-11.2 -26,-20.4 l -7.2,-7.7 v -47.2 -47.3 l 3,0.5 c 3.6,0.5 3.8,1.4 0.8,3.5 -2.1,1.3 -1.6,1.4 6.2,1.1 4.8,-0.1 11.5,0.4 15.3,1.2 7.5,1.5 30.4,1.9 32.6,0.5 2.7,-1.7 0.3,-3.6 -8,-6.3 -8.2,-2.7 -8.8,-2.7 -29.1,-2.3 l -20.8,0.3 v -10.2 c 0,-8.9 0.3,-10.7 2.1,-13 l 2,-2.6 h 35 c 33,0 34.9,0.1 34.1,1.7 z m -82.7,12 c -18.3,32.1 -17.8,71.3 1.4,102.6 4.9,8.1 5.5,12 1,6.7 -4.4,-5.2 -12.5,-22.3 -14.9,-31.5 -3.4,-13.4 -4.5,-26.3 -3.1,-38.2 2.1,-17.8 7.1,-32.3 15.7,-45.5 6.9,-10.6 6.9,-6.2 -0.1,5.9 z m 167.5,1.8 v 10.3 l -20.7,-0.3 c -20.1,-0.4 -21.1,-0.3 -29.1,2.2 -8.3,2.6 -11.9,5.4 -8.6,6.7 2.9,1.1 26.9,0.6 33.4,-0.8 3.6,-0.7 10,-1.2 14.3,-1.1 4.2,0.2 7.7,0.1 7.7,-0.2 0,-0.3 -0.8,-1.2 -1.7,-1.9 -2.1,-1.5 -1.7,-2.1 1.7,-2.6 l 2.5,-0.3 0.3,46.4 0.2,46.5 -2.7,3.9 c -3.9,5.6 -18.1,18.6 -24.6,22.5 -12.4,7.5 -33.5,14.7 -34.6,11.8 -0.2,-0.6 -1.7,-2.3 -3.3,-3.8 -3.2,-3 -3.4,-4.8 -1.3,-14.8 1.1,-5.3 1.3,-10.7 0.9,-21.8 -0.3,-8.1 -0.1,-18.1 0.5,-22.2 l 1,-7.5 -0.3,6.7 -0.4,6.7 4.9,5.7 c 2.6,3.1 5.5,7.7 6.3,10.1 0.8,2.4 3.1,6.2 5,8.6 3.7,4.6 10.6,18.1 10.6,20.9 0,0.9 0.4,1.9 0.9,2.2 1,0.6 11.9,-6.2 14,-8.7 1.2,-1.5 0.9,-1.7 -3,-1.7 -7.6,0 -9,-1.4 -11.9,-11.5 -3,-10.4 -3.8,-12.2 -9.2,-19.1 -2.3,-3.1 -4.9,-8.4 -6.4,-13 -1.4,-4.3 -4.1,-10.8 -5.9,-14.4 l -3.4,-6.5 -0.2,7 -0.2,7 -0.8,-9.5 c -1.5,-17.3 -1.8,-29.4 -0.6,-31.5 0.6,-1.1 2,-5.6 3.2,-9.9 l 2,-7.9 5,-1.7 c 2.8,-1 8.3,-2.9 12.2,-4.2 4,-1.4 10.8,-4.5 15,-7 4.3,-2.5 10.3,-5.3 13.3,-6.2 8.1,-2.6 9,-3.3 5.6,-4.2 l -2.8,-0.7 3.9,-2.2 c 3.8,-2.2 3.8,-2.2 5.6,-0.3 1.4,1.7 1.7,3.9 1.7,12.3 z m 11.6,-4.2 c 14.7,25.1 18.2,56.7 9.3,83.9 -3.1,9.6 -9.1,21.7 -13.7,27.7 -4.6,6.1 -3.6,1.3 1.6,-7.7 15.2,-26.3 18.3,-57 8.5,-84.7 -2.6,-7.3 -10.6,-23 -12.3,-24 -0.6,-0.3 -1,-1.8 -1,-3.3 l 0.1,-2.7 2,2.4 c 1.1,1.4 3.6,5.1 5.5,8.4 z m -173.8,78 -0.3,25.2 -3.6,-7 c -13.1,-25.2 -14.1,-55 -2.8,-81.6 6.5,-15.2 6.4,-15.4 6.7,12.9 0.1,13.9 0.1,36.6 0,50.5 z m 171,-68.1 c 6.2,12.8 10.2,29.4 10.2,42.8 0,9 -2.4,22.1 -5.6,31.2 -2.7,7.5 -8.1,18.8 -8.9,18.8 -0.3,0 -0.5,-22.5 -0.5,-50.1 0,-27.5 0.4,-49.8 0.8,-49.5 0.5,0.3 2.3,3.4 4,6.8 z m -86.8,74.7 c 0,3.7 0.7,10.8 1.6,15.7 0.8,4.9 1.3,10.6 0.9,12.7 -0.3,2.1 -0.1,5.5 0.4,7.5 1.3,4.8 1.7,19.8 0.7,23.9 -0.6,2.8 -0.5,3.3 1.1,3.3 1,0 2.5,0.5 3.3,1 1,0.7 -1.9,0.9 -9,0.9 -8.3,-0.1 -9.9,-0.3 -7.5,-1.1 l 3,-1 0.2,-19.7 c 0.1,-12.8 0.7,-23 1.7,-28.9 0.9,-5.1 1.6,-11.9 1.6,-15.2 0,-3.3 0.4,-6 1,-6 0.6,0 1,3 1,6.9 z m -54.8,54.5 c 14.8,9.2 30.1,14.1 47.1,15.2 30,1.9 57.9,-8.8 78.7,-30 3,-3.1 5.8,-5.6 6.2,-5.6 3.7,0 -5.9,10.8 -16.5,18.7 -7.4,5.4 -20.8,12.3 -29.8,15.2 -16.8,5.6 -39.4,6.4 -56.9,2 -17,-4.2 -36.2,-15.2 -47.9,-27.4 -9.7,-10 -7.5,-11.2 2.7,-1.4 4.8,4.7 12.2,10.6 16.4,13.3 z"
       fill="#000000"
       id="path1" />
    <path
       d="m 174.343,51.512 c -7.5,11.3 -9.1,28.4 -4.2,43.7 5.9,18.2 7.2,30.2 4.2,40.3 -2.1,6.9 -8.6,14.7 -15.5,18.6 -5.3,3 -5.9,3.1 -17.7,3.1 -12.1,-0.1 -12.3,0 -12.3,2.2 0,4.2 3.8,5.5 15.2,5.1 9.3,-0.3 11,-0.6 17,-3.6 11.8,-5.8 19.7,-17 21.8,-31.1 1.4,-8.7 0.3,-16.6 -4.1,-30.7 -3.6,-11.6 -4.9,-25.3 -2.9,-33.2 0.6,-2.8 2.5,-7.2 4.2,-9.8 3.3,-5.2 3,-7.6 -1,-8.2 -1.5,-0.2 -2.8,0.8 -4.7,3.6 z"
       fill="#000000"
       id="path2" />
    <path
       d="m 181.943,62.512 c -0.8,1.5 1.3,4.1 12.4,15.5 7.3,7.5 13.5,13.7 13.8,13.7 0.3,0 1.3,-0.7 2.2,-1.7 1.6,-1.5 0.7,-2.6 -12.2,-15.5 -7.6,-7.6 -14.1,-13.8 -14.5,-13.8 -0.4,0 -1.2,0.8 -1.7,1.8 z"
       fill="#000000"
       id="path3" />
    <path
       d="m 179.343,77.812 c -1.4,2.2 0.7,5.9 6.1,10.8 5.5,5.1 9.4,6.5 9.4,3.5 0,-1.6 -10.3,-12.9 -13.2,-14.5 -1.1,-0.6 -1.9,-0.5 -2.3,0.2 z"
       fill="#000000"
       id="path4" />
    <path
       d="m 216.343,91.212 c -6.2,5.3 -13.1,7.5 -23.7,7.5 h -9 l 0.7,2.7 c 0.3,1.6 1,3.2 1.4,3.6 1.3,1.3 15.3,0.9 20.3,-0.7 10.5,-3.1 19.8,-10.9 17.8,-14.7 -1.5,-2.6 -2.9,-2.4 -7.5,1.6 z"
       fill="#000000"
       id="path5" />
    <path
       d="m 140.143,94.212 c -13.9,4.3 -24.2,16.2 -27.4,31.5 -1.6,7.8 -0.5,18.8 3.1,31 5.5,18.8 5.1,31.3 -1.4,43.3 -3.3,6.1 -3,9.2 1,9.2 2.4,0 7.9,-9 10.1,-16.4 2.4,-8.4 1.3,-24.8 -2.5,-37.6 -5.4,-18.1 -5,-29.1 1.3,-39.8 7,-12 21.6,-17.8 37.3,-14.9 l 5.2,0.9 v -2.9 c 0,-2.4 -0.6,-3.2 -3.5,-4.4 -4.3,-1.8 -17.4,-1.8 -23.2,0.1 z"
       fill="#000000"
       id="path6" />
    <path
       d="m 152.243,105.812 c -0.8,1.4 15.601,18 17.5,17.7 3.2,-0.6 1.901,-3.2 -5.5,-10.8 -7.399,-7.6 -10.399,-9.4 -12,-6.9 z"
       fill="#000000"
       id="path7" />
    <path
       d="m 136.743,109.312 c -1.099,1.3 0.7,3.5 13.2,16 7.901,7.9 15.101,14.4 16,14.4 0.901,0 2,-0.8 2.3,-1.7 0.5,-1.3 -2.8,-5.3 -13.699,-16 -7.9,-7.9 -14.801,-14.3 -15.4,-14.3 -0.6,0 -1.6,0.7 -2.401,1.6 z"
       fill="#000000"
       id="path8" />
    <path
       d="m 127.543,118.412 c -0.4,0.3 -0.7,1.3 -0.7,2.1 0,2 27.6,29.2 29.6,29.2 0.8,0 1.7,-0.7 2.1,-1.6 0.4,-1.1 -3.6,-5.8 -13.8,-16 -13.7,-13.7 -15.7,-15.3 -17.2,-13.7 z"
       fill="#000000"
       id="path9" />
    <path
       d="m 124.544,134.412 c -1.8,1.7 -0.1,4.4 6.699,11.2 4.801,4.7 8,7.2 9.101,6.9 3.8,-0.7 2.5,-3.2 -5.601,-10.9 -8.599,-8 -9.099,-8.4 -10.199,-7.2 z"
       fill="#000000"
       id="path10" />
    <path
       d="m 89.543,152.812 c -5,1.2 -9.3,3.4 -14.4,7.6 -4.5,3.6 -5.3,6.2 -2.8,8.3 1.2,1 1.9,0.9 3.7,-0.4 11.3,-8.1 16.1,-9.8 27.3,-9.4 8,0.2 8,0.2 7.7,-2.2 -0.7,-4.4 -1.9,-5 -10.1,-4.9 -4.2,0.1 -9.3,0.5 -11.4,1 z"
       fill="#000000"
       id="path11" />
    <path
       d="m 100.843,165.312 c 0,2 11.3,13.4 13.4,13.4 3.1,0 1.6,-4.2 -3.5,-9.6 -5.2,-5.4 -9.9,-7.3 -9.9,-3.8 z"
       fill="#000000"
       id="path12" />
    <path
       d="m 84.843,168.512 c 0,2 24.5,27.2 26.5,27.2 0.7,0 1.6,-0.8 1.9,-1.7 0.5,-1.2 -2.6,-5 -12.1,-14.5 -12.2,-12.2 -16.3,-15 -16.3,-11 z"
       fill="#000000"
       id="path13" />
    <path
       d="m 800.843,52.712 c -1,0.6 -1.7,3.3 -2,8.2 l -0.5,7.3 -3.5,0.6 c -1.9,0.3 -4.8,1.2 -6.4,1.8 -3.4,1.4 -3.8,1.1 -6.2,-6.4 -2,-6 -3,-7.3 -4.5,-5.8 -0.7,0.7 -0.3,3.1 1.5,8.3 l 2.5,7.3 -3.2,3.8 c -1.8,2.1 -3.5,3.9 -3.9,3.9 -1,0 -5.9,-6.1 -6.9,-8.7 -0.9,-2.4 -2.4,-3 -3.4,-1.3 -0.8,1.3 3.1,8.7 6.1,11.7 l 2.5,2.5 -2.7,4.6 -2.7,4.6 -4.9,-5.4 c -3.6,-4 -5.1,-5.1 -6,-4.2 -1.4,1.4 0.3,4.1 5.5,9.2 l 3.6,3.5 -2.5,3.3 c -1.4,1.7 -3.1,3.2 -3.8,3.2 -0.6,0 -3.2,-2 -5.6,-4.5 -2.4,-2.5 -5,-4.5 -5.6,-4.5 -3.1,0 -2.2,2.5 2.5,6.7 2.8,2.5 5.1,5.2 5.1,5.9 0,0.7 -1.7,2.5 -3.7,3.9 l -3.8,2.6 -2,-2.3 c -3.1,-3.6 -9,-7.8 -10.8,-7.8 -2.9,0 -1.8,2.4 2.5,5.5 2.3,1.6 4.7,3.9 5.5,5.1 1.2,1.9 1,2.3 -2.7,5.3 l -4,3.2 -5.1,-3.6 c -5.1,-3.5 -9.9,-4.6 -9.9,-2.3 0,0.7 2.4,2.6 5.4,4.1 5.6,2.9 7.3,5.1 5.8,7.1 -0.5,0.6 -1.7,3.3 -2.7,5.9 l -1.8,4.8 -5.1,-0.7 c -8,-1.2 -10.1,-1.1 -10.1,0.6 0,1.1 1.9,1.8 7.5,2.5 l 7.5,1 0.6,4.7 c 0.4,2.6 1,5.2 1.4,5.7 0.6,1.1 -1,1.6 -8.4,2.6 -6,0.8 -9.3,2.7 -13.6,7.9 -2.4,2.9 -4.7,4.7 -6.8,5.2 -4.4,0.9 -5,1.4 -3.6,3 0.8,1 2.2,1.3 4.3,0.8 4.3,-0.9 6.4,-2.4 8.8,-6.3 2.7,-4.3 8.7,-7 16.4,-7.3 4.7,-0.2 5.9,0 6.2,1.3 0.2,1 -0.8,2.1 -2.8,2.9 -4,1.7 -7.5,6.9 -9.3,14.3 -2,7.7 -4,10.5 -9.2,12.8 -7.3,3.3 -6.9,5.9 0.7,3.9 5.5,-1.5 9.5,-5.9 11.3,-12.9 2.4,-8.7 4.2,-11.9 7.7,-14.1 6.3,-3.8 9.3,-1.8 6.2,4.2 -1.2,2.4 -1.7,5.5 -1.6,11.2 0.1,9.1 -1,12 -6.4,16.4 -3.3,2.7 -3.9,5.2 -1.3,5.2 2,0 9.9,-8.3 11,-11.7 0.6,-2 0.8,-5.3 0.4,-7.8 -0.7,-4.9 0.8,-11.6 2.9,-13.4 1,-0.9 2.8,-0.7 7.1,0.6 l 5.8,1.8 -0.6,7.8 c -0.6,7 -0.5,7.8 1.1,7.5 1.7,-0.3 3,-5.1 3.1,-11.8 0.1,-3.5 0.2,-3.6 6.7,-5.6 l 6.5,-2 1.4,2.5 c 0.7,1.4 1.9,4.5 2.6,6.9 0.9,3 1.7,4.2 2.8,4 2,-0.4 1.7,-3.5 -1.3,-10.9 l -2.3,-5.6 3.5,-3.8 c 4.2,-4.5 5.6,-4.1 9.1,2.8 2.2,4.5 5.1,6.3 5.1,3.2 0,-2.7 -2.6,-7.9 -5.4,-10.9 -2.5,-2.6 -2.6,-3.1 -1.6,-5.7 2.5,-5.8 3.8,-5.8 8.9,-0.1 3.6,4.1 4.9,5 5.8,4.1 0.9,-0.9 0.2,-2.5 -3.3,-7 -2.4,-3.1 -4.4,-6.2 -4.4,-6.6 0,-1.1 4.3,-5.3 5.4,-5.3 0.5,0 3.1,2 5.8,4.5 2.8,2.5 5.6,4.5 6.4,4.5 2.8,0 1.3,-2.8 -3.6,-6.9 -2.7,-2.3 -5,-4.6 -5,-5 0,-0.5 1.8,-2 3.9,-3.4 3.5,-2.3 4.1,-2.4 5.2,-1.1 2,2.5 9.6,7.4 11.3,7.4 2.4,0 1.9,-2.8 -0.6,-4.1 -1.3,-0.6 -3.7,-2.5 -5.4,-4.1 l -3.2,-3 3.9,-3.5 3.8,-3.4 6.2,3.6 c 5.6,3.3 9.6,4 8.7,1.5 -0.2,-0.5 -2.8,-2.4 -5.8,-4.3 -6.1,-3.6 -6.2,-4.1 -3.4,-12 l 1.7,-4.9 7.8,0.7 c 6.7,0.6 7.9,0.5 7.9,-0.8 0,-1.5 -5.8,-3.2 -13,-3.9 -2.1,-0.3 -2.6,-1 -3.1,-4.3 -0.3,-2.2 -0.9,-5.1 -1.3,-6.5 -0.7,-2.4 -0.2,-2.8 5.8,-5.8 3.7,-1.8 6.6,-3.9 6.6,-4.7 0,-2.2 -2.4,-1.8 -9.1,1.6 -3.4,1.7 -6.2,2.9 -6.3,2.7 0,-0.2 -1.6,-2.2 -3.4,-4.6 -3.8,-4.9 -3.7,-6.1 1.5,-12.8 2.4,-3.3 3.2,-4.9 2.4,-5.7 -1.4,-1.4 -5.4,2.3 -8.8,8 -1.4,2.4 -2.6,4.3 -2.6,4.3 -2.7,-0.6 -11.2,-4.1 -11.4,-4.7 -0.2,-0.5 0.1,-3.8 0.6,-7.3 0.9,-6.9 0.5,-8.5 -1.9,-7 z m 8.5,22.4 c 8.9,4.1 14.4,12.9 14.5,23 0,11.9 -4.3,18.7 -17.6,27.7 -10.3,6.9 -17.2,14.1 -23.2,24 -8.8,14.7 -15.9,19.5 -27.2,18.7 -7.2,-0.5 -14.1,-4.5 -18.4,-10.5 -2.5,-3.6 -3,-5.4 -3.4,-12.1 -0.7,-11.6 2.4,-16.7 15.8,-26.5 10.2,-7.4 19.9,-17.9 25,-27.2 2.3,-4.3 5.6,-9.3 7.3,-11.2 7,-8 17.8,-10.3 27.2,-5.9 z"
       fill="#000000"
       id="path14" />
    <path
       d="m 794.843,81.812 c -6.3,2.5 -8,10.4 -3.4,15.8 2.1,2.6 3.3,3.1 6.9,3.1 9.9,0 13.7,-12.9 5.2,-18 -3.5,-2.2 -5,-2.3 -8.7,-0.9 z m 7.2,4.6 c 2,1.8 2.4,7.3 0.6,9.1 -2,2 -7.6,1.5 -8.8,-0.7 -1.7,-3.2 -1.2,-6.9 1.2,-8.5 2.9,-2 4.7,-2 7,0.1 z"
       fill="#000000"
       id="path15" />
    <path
       d="m 813.243,95.812 c -1,1.7 1.3,3.6 2.7,2.2 1.2,-1.2 0.4,-3.3 -1.1,-3.3 -0.5,0 -1.2,0.5 -1.6,1.1 z"
       fill="#000000"
       id="path16" />
    <path
       d="m 780.044,99.112 c 0.099,1 0.8,1.7 1.3,1.7 1.5,-0.1 1.2,-2.4 -0.3,-2.9 -0.901,-0.3 -1.3,0.2 -1,1.2 z"
       fill="#000000"
       id="path17" />
    <path
       d="m 809.143,108.312 c -0.3,0.8 0.2,2.3 1.1,3.2 1.5,1.5 1.7,1.5 3.2,0 2.1,-2.1 1.1,-4.8 -1.6,-4.8 -1.1,0 -2.3,0.7 -2.7,1.6 z"
       fill="#000000"
       id="path18" />
    <path
       d="m 796.844,108.712 c 0,0.5 0.5,2.1 1.2,3.5 0.8,1.9 0.8,3.1 -0.1,5.2 -1.801,3.9 0.4,5.6 3.1,2.3 3,-3.7 1.099,-12 -2.8,-12 -0.8,0 -1.4,0.4 -1.4,1 z"
       fill="#000000"
       id="path19" />
    <path
       d="m 769.844,110.212 c 0,0.8 0.7,1.5 1.5,1.5 0.799,0 1.5,-0.7 1.5,-1.5 0,-0.8 -0.701,-1.5 -1.5,-1.5 -0.8,0 -1.5,0.7 -1.5,1.5 z"
       fill="#000000"
       id="path20" />
    <path
       d="m 779.144,110.912 c -1.3,0.6 -3.2,3 -4.3,5.3 -1.9,4 -2.4,4.3 -7.2,4.9 -10.4,1.4 -15.8,6.3 -15.8,14.4 0,4.4 2.3,8.3 3.9,6.6 0.8,-0.7 0.8,-1.9 0,-4.2 -2.2,-6.3 5.4,-13.2 14.6,-13.2 3.1,0 3.5,0.3 3.5,2.5 0,1.8 0.5,2.5 1.8,2.5 2.7,0 3.1,-0.8 2.1,-4.3 -1.1,-3.7 -0.7,-4.2 2,-2.7 2,1 2,1.2 0.5,4.8 -2,4.9 -2.8,5.6 -5.6,4.8 -4.1,-1.1 -5.5,-2.3 -4,-3.8 1.7,-1.7 1.5,-2.8 -0.6,-2.8 -2.6,0 -3.4,1.1 -1.9,2.8 0.9,1.2 0.9,1.6 0,1.9 -2.7,0.9 -1.4,4 2,4.7 2.5,0.5 2.9,0.9 1.7,1.6 -2.3,1.5 -6.7,1.2 -8.5,-0.6 -1.5,-1.5 -1.5,-1.8 0.1,-4.1 2.2,-3.4 0.5,-5.2 -2.9,-3 -1.9,1.2 -2.2,2.2 -1.9,5 0.6,5 3.4,7.2 9.2,7.2 3.5,0 5.7,-0.7 8.4,-2.6 4.6,-3.3 8.6,-8.6 8.6,-11.5 0,-1.6 1.1,-2.8 3.8,-4.1 3.1,-1.5 3.7,-2.4 4,-5.4 0.3,-3 -0.2,-4.1 -2.4,-5.8 -2.9,-2.3 -7.5,-2.6 -11.1,-0.9 z m 9.2,4.4 c 2.2,2.2 0.2,4.4 -3.9,4.3 -2.9,0 -3,-0.1 -0.8,-1 2.9,-1.1 2.4,-3.1 -0.9,-4 -2.2,-0.6 -2.1,-0.7 0.8,-0.8 1.7,-0.1 3.9,0.6 4.8,1.5 z"
       fill="#000000"
       id="path21" />
    <path
       d="m 794.344,123.712 c -0.8,1.3 0.4,3.2 1.6,2.5 1.199,-0.8 1.199,-3.5 0,-3.5 -0.6,0 -1.301,0.4 -1.6,1 z"
       fill="#000000"
       id="path22" />
    <path
       d="m 744.044,131.912 c -1.5,1.5 -1.6,7.2 -0.2,9.9 1.6,2.8 4.4,2.5 3.5,-0.4 -0.8,-2.4 -0.9,-5 -0.3,-8.1 0.4,-2.3 -1.3,-3.1 -3,-1.4 z"
       fill="#000000"
       id="path23" />
    <path
       d="m 771.844,147.712 c 0,1.1 0.7,2 1.5,2 0.799,0 1.5,-0.9 1.5,-2 0,-1.1 -0.701,-2 -1.5,-2 -0.8,0 -1.5,0.9 -1.5,2 z"
       fill="#000000"
       id="path24" />
    <path
       d="m 745.143,149.412 c -2,0.7 -1.5,4.1 0.6,5.2 2.5,1.4 5,-1.3 3.5,-3.7 -1.2,-1.8 -2.4,-2.3 -4.1,-1.5 z"
       fill="#000000"
       id="path25" />
    <path
       d="m 756.343,157.612 c -1.2,2 0.5,2.9 5.2,2.6 3.2,-0.2 4.8,-0.8 4.8,-1.7 0,-1.6 -9,-2.4 -10,-0.9 z"
       fill="#000000"
       id="path26" />
    <path
       d="m 378.043,270.312 c -1.6,0.7 -4.2,5.8 -4.2,8.3 0,1.1 1.4,3.6 3,5.4 2.4,2.8 3,4.4 3,8.1 0,2.6 0.5,5.7 1.1,6.9 0.6,1.2 6,7.2 11.9,13.2 11.1,11.3 12.7,14 11.6,19.8 -0.4,1.7 -0.9,6 -1.3,9.5 -0.5,5.9 -0.7,6.4 -3.7,7.6 -3.9,1.6 -8.2,6.6 -9.1,10.4 l -0.6,2.9 -10.6,0.7 c -7.3,0.4 -11,0.2 -11.9,-0.5 -1.1,-0.9 -1.4,-5.3 -1.4,-19.4 v -18.3 l 3,-3 c 6,-6.1 2.4,-15.2 -6,-15.2 -7.7,0 -11.2,9 -5.7,14.8 l 2.7,2.8 v 17.7 c 0,25.9 0.9,27.2 19.5,28.4 l 10.5,0.6 v 4.2 4.2 l -10.7,0.6 c -18.6,1.2 -17.7,1.3 -23.9,-4.4 l -5.4,-5.2 v -16.7 c 0,-19.3 0,-19.3 -8.2,-18.8 -4.6,0.3 -5.3,0.6 -5.6,2.5 -0.3,2.1 0.1,2.3 3.7,2.3 h 4.1 v 14.4 c 0,8 0.5,15.7 1.1,17.3 1.4,3.9 10.7,13.1 14.4,14.2 1.6,0.5 9.2,1.3 16.8,1.7 l 13.7,0.6 v 4.3 4.2 l -10.7,0.6 c -5.8,0.4 -13.9,0.7 -17.9,0.7 h -7.3 l -6,-5.4 c -6.3,-5.5 -9,-6.6 -16.9,-6.6 -3.8,0 -5,-0.5 -6.8,-2.7 -3.1,-3.9 -9.6,-3.9 -13,0 -3.4,3.9 -3.1,8.1 0.6,11.9 2.7,2.6 3.6,3 6.8,2.5 2.2,-0.4 4.6,-1.7 5.9,-3.2 1.9,-2.2 3,-2.5 8.2,-2.5 5.8,0 6.2,0.2 11.8,5.1 7.1,6.3 8.7,6.9 17.2,6.9 3.7,0 11.6,0.3 17.4,0.7 l 10.7,0.6 v 4.2 4.2 l -10.7,0.6 c -5.8,0.4 -23.6,0.7 -39.6,0.7 h -28.9 l -1.9,-2.5 c -3.5,-4.4 -11.1,-4.2 -14.6,0.4 -0.7,0.9 -1.2,3.2 -1.2,5.1 0,1.9 0.5,4.2 1.2,5.1 3.5,4.6 11.1,4.8 14.6,0.4 l 1.9,-2.5 h 28.9 c 16,0 33.8,0.3 39.6,0.7 l 10.7,0.6 v 4.2 4.2 l -10.7,0.6 c -5.8,0.4 -13.4,0.7 -16.9,0.7 -8.1,0 -10.5,1 -18.2,7.5 -6,5.2 -6.7,5.5 -11.7,5.5 -4.6,0 -5.8,-0.4 -8.3,-3 -5.4,-5.3 -13.1,-3.4 -14.8,3.6 -2.3,9.2 10.3,14.6 15.9,6.9 1.7,-2.2 2.6,-2.5 8.7,-2.5 h 6.9 l 6.8,-6 6.8,-6 h 7.1 c 3.9,0 11.9,0.3 17.7,0.7 l 10.7,0.6 v 4.1 4.2 l -15,1.1 c -16.6,1.2 -16.9,1.3 -24.8,9.2 -5.9,5.9 -6.2,7.1 -6.2,24.7 v 13.4 h -3.5 c -3.8,0 -5.9,2.5 -3.4,4.1 2.1,1.3 10.3,1.1 11.7,-0.3 0.8,-0.8 1.2,-6 1.2,-16.9 0,-17.7 0.6,-19.3 8.7,-25.1 l 4.1,-3 13.6,0.7 13.6,0.7 v 4.3 4.3 l -6.7,0.5 c -15.4,1.2 -20.5,3 -22.3,8.1 -0.5,1.6 -1,10.9 -1,20.6 0,16.7 -0.1,17.8 -2.1,19.6 -5,4.5 -4.3,12.1 1.3,15 9.1,4.7 17.3,-7.2 9.8,-14.3 l -3,-2.8 v -18 c 0,-9.9 0.4,-18.6 0.9,-19.3 0.9,-1.5 2.9,-1.7 14.4,-1.4 7.4,0.2 7.8,0.3 8.8,2.9 2.6,6.4 3.6,7.7 8,10.2 l 4.7,2.6 0.6,8 c 1.4,16 2,14.4 -11.4,28.1 l -12,12.2 v 6.2 c 0,5.5 -0.4,6.6 -3,9.7 -3.2,3.6 -3.6,5.8 -1.9,9.6 1.7,3.9 7.8,5.8 12.4,4.1 1.9,-0.8 4.5,-5.5 4.5,-8.3 0,-1.1 -1.3,-3.6 -3,-5.4 -2.5,-2.9 -3,-4.3 -3,-8.8 v -5.3 l 12,-12.1 12,-12.2 v -6.1 c 0,-3.3 0.4,-6.4 1,-6.7 0.6,-0.3 1,-3.5 1,-7.1 v -6.4 h 4.3 4.4 l 0.6,10.7 c 1.3,20.3 1.8,18.3 -7.7,28.2 -4.7,4.9 -8.8,9.9 -9.1,11.2 -0.3,1.3 -0.4,8 -0.3,14.9 0.3,11.7 0.4,12.5 2.3,12.5 1.9,0 2,-0.8 2.5,-13.1 l 0.5,-13.2 8.6,-8.9 c 4.8,-5 8.9,-9.8 9.2,-10.9 0.3,-1 0.9,-8.5 1.2,-16.7 l 0.7,-14.7 h 4.4 4.4 v 6.3 c 0,3.5 0.5,6.8 1.1,7.4 0.7,0.7 1,4.9 0.7,11.5 l -0.3,10.5 -5.1,5.6 c -4.8,5.2 -5.2,6 -5.9,12.3 -0.6,5.5 -1.2,7.1 -3.3,8.9 -2.1,1.8 -2.7,3.2 -2.7,6.4 0,5 2.6,7.9 7.6,8.7 2.8,0.5 4.1,0.1 6.7,-2.1 4.4,-3.7 4.5,-9.2 0.2,-12.8 -2.6,-2.2 -3,-3.2 -3,-7.5 0,-4.5 0.5,-5.5 4.3,-9.8 2.4,-2.7 4.9,-5.9 5.6,-7.2 1.3,-2.4 2.5,-19.6 2.2,-31.5 l -0.2,-6.7 h 4.9 4.9 l 0.6,10.7 c 0.4,5.8 0.7,19.3 0.7,29.9 v 19.2 l -3,3 c -8.2,8.3 2.8,20.4 11.6,12.8 3.9,-3.3 3.8,-8.5 0,-12.5 l -2.8,-2.9 0.1,-19.3 c 0.1,-10.7 0.4,-24.2 0.7,-30.2 l 0.7,-10.7 h 4.2 4.2 l 0.6,10.7 c 0.4,5.8 0.7,13.7 0.7,17.5 0,8 1.4,11.4 7.1,17.3 2.9,3.1 4,5.2 4.5,8.6 0.6,4.3 0.4,4.8 -2.7,7.7 -8.2,7.6 -0.6,19.7 9.4,15.1 5.3,-2.4 6.2,-9.6 1.7,-14.1 -2.6,-2.5 -3,-3.7 -3,-8.2 0,-5.6 -2.4,-10 -8.4,-15.5 -2.4,-2.2 -2.6,-3.1 -2.6,-10.1 0,-4.2 0.3,-12.5 0.7,-18.3 l 0.6,-10.7 h 4.2 4.2 l 0.7,8.2 c 0.3,4.6 1,12 1.4,16.5 l 0.7,8.3 7.1,7.2 c 10.4,10.8 9.8,9.5 10.4,24.2 0.5,12.6 0.6,13.1 2.8,13.4 2.2,0.3 2.2,0.3 2.2,-14.2 v -14.5 l -8.5,-9.1 c -4.7,-5 -8.8,-10.2 -9.1,-11.6 -0.3,-1.3 -0.4,-5.7 -0.1,-9.7 0.4,-3.9 0.8,-9.7 0.9,-12.7 l 0.3,-5.5 4.6,-0.3 4.6,-0.3 0.7,11.7 c 0.4,6.4 1.2,12.9 1.7,14.3 0.6,1.4 6.2,7.8 12.5,14.2 11.1,11.3 11.4,11.7 11.4,16.1 0,3.6 -0.6,5.1 -3,7.6 -5.8,6.1 -2.6,15.2 5.3,15.2 8.4,0 11.8,-8.8 5.7,-15.2 -2.6,-2.7 -3,-3.8 -3,-9.1 v -6 l -12.1,-12.3 -12.2,-12.4 0.6,-8.3 c 0.4,-4.5 0.7,-9.9 0.7,-11.9 0,-3.3 0.4,-3.8 3.4,-4.8 4.2,-1.4 7.4,-4.8 9.1,-9.7 l 1.3,-3.8 8.9,-0.7 c 10.2,-0.7 13,-0.3 14.3,2.2 0.6,1 1,9.5 1,18.8 v 17 l -3.5,3.5 c -1.9,1.9 -3.5,4.5 -3.5,5.6 0,3.6 2.7,7.7 5.8,9 9.2,3.8 16.5,-8.1 9.2,-14.9 l -3,-2.8 v -19.2 -19.2 l -2.9,-2.9 c -2.4,-2.3 -3.8,-2.9 -7.5,-2.9 -2.4,0 -4.8,-0.5 -5.1,-1 -0.3,-0.6 -3.7,-1 -7.6,-1 h -6.9 v -4.4 -4.3 l 13.9,-0.8 c 8.8,-0.4 14.6,-0.3 15.8,0.3 1,0.6 3.6,2.9 5.8,5.2 l 4,4.1 0.5,17 c 0.6,18.8 0.6,18.9 7.2,18.9 4.9,0 6.8,-0.8 6.8,-3.1 0,-1.5 -0.7,-1.9 -4,-1.9 h -4 v -14.5 c 0,-17.2 -0.5,-19 -8.2,-26.2 -5.7,-5.3 -6.3,-5.5 -20.3,-6.3 -1.1,0 -5.5,-0.3 -9.7,-0.6 l -7.8,-0.6 v -4.2 -4.3 l 10.7,-0.6 c 5.8,-0.4 13.9,-0.7 17.9,-0.7 h 7.2 l 5.4,4.8 c 7.1,6.5 8.6,7.2 15.8,7.2 5.6,0 6.4,0.3 8.7,3 6.4,7.7 19.4,-0.1 14.8,-9 -3.1,-6 -10,-6.9 -14.6,-1.9 -2.8,3 -3.3,3.1 -8.9,2.7 -5.4,-0.4 -6.3,-0.8 -10.8,-5 -6.9,-6.5 -9.9,-7.8 -18,-7.8 -3.8,0 -11.7,-0.3 -17.5,-0.7 l -10.7,-0.6 v -4.2 -4.2 l 10.7,-0.6 c 5.8,-0.4 23.7,-0.7 39.6,-0.7 h 29 l 2.3,2.5 c 4.9,5.3 13.2,3.8 15.4,-2.9 3,-9.1 -8.8,-15.4 -15.2,-8.1 l -2.2,2.5 h -29.1 c -16.1,0 -34,-0.3 -39.8,-0.7 l -10.7,-0.6 v -4.2 -4.2 l 10.7,-0.6 c 5.8,-0.4 13.9,-0.7 18,-0.7 8.5,0 9.9,-0.6 17.1,-7.2 5.2,-4.7 5.5,-4.8 11.7,-4.8 4.5,0 6.6,0.4 7.2,1.4 1,1.8 6.2,4.6 8.5,4.6 0.9,0 3,-1.2 4.7,-2.6 3.1,-2.6 4.1,-6.8 2.5,-10.9 -1.9,-4.9 -12,-5.6 -15,-1 -1.4,2.2 -2.4,2.5 -7,2.5 -7,0 -11.2,1.8 -17.2,7.4 l -4.9,4.6 h -7.5 c -4.1,0 -12.3,-0.3 -18.1,-0.7 l -10.7,-0.6 v -4.2 -4.3 l 13.8,-0.6 c 7.5,-0.4 15.1,-1.2 16.7,-1.7 1.7,-0.5 5.8,-3.6 9,-6.9 l 6,-6.1 0.3,-16.4 0.3,-16.5 h 4 c 3.6,0 4,-0.2 3.7,-2.3 -0.3,-2 -0.8,-2.2 -6.3,-2.2 h -6 l -0.5,17.2 -0.5,17.3 -5.6,5.6 -5.7,5.7 -14.6,-0.8 -14.6,-0.7 v -4.4 -4.4 h 5.8 c 3.1,0 8.6,-0.5 12.2,-1 5.4,-0.7 7,-1.4 9.3,-4 l 2.7,-3 v -18.9 -18.9 l 3,-3 c 4.7,-4.7 3.9,-11 -1.7,-14 -9.1,-4.9 -17.1,6.2 -9.9,13.7 l 2.8,2.9 -0.1,18.3 c -0.1,13.5 -0.4,18.7 -1.4,19.6 -1,1 -3.9,1.1 -11.9,0.7 l -10.7,-0.7 -0.6,-2.9 c -0.9,-3.8 -5.6,-9.2 -9.5,-10.8 -2.6,-1.1 -3,-1.8 -3,-4.9 0,-2 -0.3,-7.3 -0.6,-11.8 l -0.7,-8.2 11.6,-11.8 c 12.1,-12.4 13.7,-14.9 13.7,-21.5 0,-3.1 0.6,-4.5 2.5,-6 5.4,-4.2 1.9,-14.8 -5,-14.8 -4.7,0 -6.4,0.8 -8,4.1 -2.2,4.1 -1.8,6.4 1.5,10.2 2.4,2.8 3,4.4 3,8.2 0,4.6 -0.1,4.8 -11.1,15.7 -6,6.1 -11.7,12.4 -12.4,13.9 -0.9,1.6 -1.8,7.5 -2.1,14.3 l -0.7,11.6 h -4.7 -4.8 l -0.7,-14.5 -0.7,-14.5 6.8,-7.6 c 12.5,-13.7 11.7,-11.9 12.1,-25.7 0.4,-9.7 0.2,-12.6 -1,-14.2 -1.3,-1.6 -1.7,-1.7 -3.1,-0.6 -1.3,1.1 -1.6,3.6 -1.6,13.7 v 12.4 l -8.5,8.9 c -4.6,4.9 -8.7,10 -8.9,11.3 -0.3,1.2 -0.8,5.6 -1.1,9.5 -0.3,4 -0.8,10.4 -1.1,14.3 l -0.6,7 h -4.2 -4.3 l -0.6,-10.7 c -0.4,-5.8 -0.7,-13.8 -0.7,-17.6 0,-6.8 0.1,-7.1 4.3,-12.1 5.8,-6.7 6.7,-8.6 6.7,-13.8 0,-3.5 0.6,-4.8 3,-7.1 5.1,-4.8 3.6,-12 -3,-14.7 -3.9,-1.6 -8.5,0.1 -10.5,4.1 -2.3,4.3 -1.8,6.5 2,10.8 3.2,3.5 3.5,4.3 2.9,8 -0.4,2.7 -2.1,5.7 -5.1,9.2 -5.6,6.6 -6.3,8.4 -6.3,16.3 0,3.5 -0.3,11.1 -0.7,16.9 l -0.6,10.7 h -4.2 -4.2 l -0.6,-10.7 c -0.4,-5.8 -0.7,-19 -0.7,-29.3 0,-17.8 0.1,-18.8 2.1,-20.6 5,-4.5 4.3,-12.1 -1.3,-15 -9.2,-4.7 -17.4,7.5 -9.8,14.6 l 3,2.8 v 18.4 c 0,10.2 -0.3,23.3 -0.7,29.1 l -0.6,10.7 h -4.3 -4.2 l -0.6,-7.3 c -0.3,-3.9 -0.9,-12.4 -1.4,-18.8 -0.5,-8.2 -1.2,-12.3 -2.2,-13.5 -0.9,-1.1 -3.3,-3.8 -5.3,-6.2 -4.9,-5.6 -5.2,-11 -0.7,-15.2 7.2,-6.7 0.7,-18 -8.7,-14.9 -3.5,1.1 -6.3,5.1 -6.3,9 0,1.2 1.6,3.6 3.5,5.5 3.1,2.9 3.5,3.9 3.5,8.2 0,5 0.2,5.4 7.8,15.3 l 3.3,4.4 -0.5,9.5 c -0.3,5.2 -0.8,12.8 -1.2,16.7 l -0.6,7.3 h -4.2 -4.3 l -0.9,-15.5 c -1.1,-17.3 -0.2,-15.2 -11.9,-28.1 l -7,-7.7 v -12.3 c 0,-12.6 -0.7,-15.3 -3.9,-14.1 -1.3,0.5 -1.6,2.8 -1.6,13.7 0,7.9 0.5,14 1.1,15.3 0.7,1.2 4.7,5.9 9,10.4 8.9,9.4 8.5,7.5 7.2,27.6 l -0.6,10.7 h -4.3 -4.2 l -0.6,-6.8 c -0.9,-12.8 -2.1,-18.7 -4.3,-21.7 -1.2,-1.7 -6.5,-7.3 -11.7,-12.5 l -9.6,-9.5 v -5.3 c 0,-4.4 0.4,-5.6 2.6,-7.5 5.5,-4.7 2.1,-14 -5.2,-14.4 -2.1,-0.1 -4.5,0.1 -5.2,0.3 z m 56.2,8.6 c 1.5,2.4 -1.3,5.3 -4.3,4.3 -2.1,-0.6 -2.9,-4.3 -1.4,-5.9 1.2,-1.2 4.5,-0.2 5.7,1.6 z m 28.4,0.9 c 0.3,2.8 -1.6,4.3 -4.2,3.3 -3.8,-1.4 -2.2,-6.8 1.8,-6.2 1.4,0.2 2.2,1.2 2.4,2.9 z m 28,-1.9 c 0.7,0.7 1.2,1.8 1.2,2.5 0,1.7 -3.5,3.4 -5.4,2.7 -1.6,-0.6 -2.2,-4.5 -0.9,-5.7 1,-1.1 3.8,-0.8 5.1,0.5 z m -124.7,35.4 c 1.7,2.1 0,4.9 -3.2,4.9 -1.8,0 -2.5,-0.6 -2.7,-2.4 -0.6,-3.8 3.4,-5.5 5.9,-2.5 z m 193,0 c 1.7,2.1 0,4.9 -3.2,4.9 -2.4,0 -3.6,-2.3 -2.5,-5.1 0.7,-1.9 4,-1.8 5.7,0.2 z m -40,44.3 2.4,1.9 -0.3,58.3 c -0.2,52.5 -0.4,58.4 -1.9,60.1 -1.5,1.7 -4.8,1.8 -59.9,1.8 h -58.3 l -1.5,-2.2 c -1.4,-2 -1.6,-9.3 -1.6,-60 0,-56.5 0,-57.8 2,-59.8 2,-2 3.3,-2 59.4,-2 55,0 57.5,0.1 59.7,1.9 z m -199.3,28.3 c 1.8,1.8 1.4,4.6 -0.7,5.8 -1.5,0.7 -2.3,0.6 -3.5,-0.6 -2,-1.9 -2,-2.9 0,-4.8 1.9,-1.9 2.6,-2 4.2,-0.4 z m 284.2,0.3 c 2,2.5 0.8,5 -2.5,5 -2.1,0 -3.1,-0.5 -3.3,-1.8 -0.4,-2.1 1.4,-4.7 3.3,-4.7 0.7,0 1.8,0.7 2.5,1.5 z m -300.2,28.7 c 1.8,1.8 1.4,4.6 -0.7,5.8 -3.4,1.8 -6.7,-3 -3.9,-5.8 0.7,-0.7 1.7,-1.2 2.3,-1.2 0.6,0 1.6,0.5 2.3,1.2 z m 316.5,1 c 1.7,2.6 0.1,5 -3,4.6 -3.4,-0.4 -4.3,-3.6 -1.7,-5.5 2.1,-1.5 3.4,-1.3 4.7,0.9 z m -300.5,28.7 c 0.8,0.4 1.2,1.9 1,3.2 -0.4,2.9 -4.5,3.4 -6.1,0.7 -1.9,-3 1.9,-6 5.1,-3.9 z m 284,0.3 c 2.6,2.6 0.8,5.8 -3.3,5.8 -1.9,0 -2.9,-3.8 -1.5,-5.5 1.5,-1.8 3.2,-1.9 4.8,-0.3 z m -237.8,73.3 c 2,2.4 0.3,5.7 -2.8,5.3 -3,-0.3 -4.1,-3 -2.2,-5.3 1.6,-1.9 3.4,-1.9 5,0 z m 192.4,-0.2 c 2.8,2.1 1.2,5.9 -2.2,5.5 -4.1,-0.5 -4.2,-6.7 -0.1,-6.8 0.3,0 1.3,0.6 2.3,1.3 z m -123.4,38.7 c 0,2.3 -3.2,4.3 -5.4,3.4 -2.1,-0.8 -2,-5.1 0.1,-6.3 2.3,-1.2 5.3,0.4 5.3,2.9 z m 27.8,-0.1 c 0.6,4 -3.9,5.6 -5.8,2 -0.9,-1.5 -0.8,-2.4 0.1,-3.5 1.8,-2.2 5.3,-1.3 5.7,1.5 z m 28.6,-1.4 c 1.3,3.4 -2.4,6.6 -5,4.4 -1.5,-1.2 -1.9,-4.1 -0.7,-5.2 1.2,-1.3 5.1,-0.7 5.7,0.8 z"
       fill="#000000"
       id="path27" />
    <path
       d="m 426.843,365.212 c -1,1.2 -1,1.9 -0.2,2.7 1.6,1.6 1.5,6.6 0,6.5 -3.9,-0.1 -5.8,0.6 -8.2,2.9 -2.5,2.6 -2.6,3.1 -2.6,13.3 0,7 0.4,11.1 1.2,11.9 0.7,0.7 3.4,1.2 6,1.2 4.1,0 4.8,-0.3 4.8,-2 0,-1.7 -0.7,-2 -4,-2 h -4 v -9.3 c 0,-10.1 0.7,-11.7 5.1,-11.7 6.1,0 7.6,-1.4 8.2,-7.6 0.6,-6 0,-7.4 -3.4,-7.4 -0.9,0 -2.2,0.7 -2.9,1.5 z"
       fill="#000000"
       id="path28" />
    <path
       d="m 441.543,364.412 c -0.4,0.3 -0.7,5.3 -0.7,11 0,9.5 0.2,10.3 1.9,10.3 2.7,0 3.4,-6 2.2,-20.8 -0.1,-1.3 -2.3,-1.7 -3.4,-0.5 z"
       fill="#000000"
       id="path29" />
    <path
       d="m 452.543,364.412 c -0.4,0.3 -0.7,5.3 -0.7,11 0,9.6 0.1,10.3 2,10.3 1.6,0 2,-0.7 2.2,-3.8 0.1,-3.6 0.1,-14.5 -0.1,-17 -0.1,-1.3 -2.3,-1.7 -3.4,-0.5 z"
       fill="#000000"
       id="path30" />
    <path
       d="m 463.543,364.412 c -0.4,0.3 -0.7,5.3 -0.7,11 0,9.6 0.1,10.3 2,10.3 1.9,0 2,-0.7 2,-11 0,-8.5 -0.3,-11 -1.3,-11 -0.8,0 -1.7,0.3 -2,0.7 z"
       fill="#000000"
       id="path31" />
    <path
       d="m 475.643,364.812 c -1.5,0.8 -1.8,2.5 -1.8,10.9 0,9.3 0.1,10 2,10 1.7,0 1.9,-0.8 2.2,-8.8 l 0.3,-8.7 10.3,-0.3 10.4,-0.3 5.3,4.6 c 2.9,2.5 5.8,4.5 6.4,4.5 2.7,0 1.6,-2.3 -3.7,-7.4 l -5.7,-5.6 h -12 c -6.6,0.1 -12.8,0.5 -13.7,1.1 z"
       fill="#000000"
       id="path32" />
    <path
       d="m 406.543,371.312 c -0.4,0.4 -0.7,9.6 -0.7,20.5 0,23.9 -0.6,22.9 13.3,22.9 8.6,0 8.8,-0.1 8.5,-2.3 -0.3,-2.1 -0.8,-2.2 -9,-2.5 l -8.8,-0.3 -0.2,-19.1 c -0.3,-18 -0.8,-21.4 -3.1,-19.2 z"
       fill="#000000"
       id="path33" />
    <path
       d="m 486.343,375.712 c -1.1,1.8 1.6,4 4.9,4 3.9,0 6,-1.8 4.5,-3.7 -1.3,-1.5 -8.5,-1.8 -9.4,-0.3 z"
       fill="#000000"
       id="path34" />
    <path
       d="m 501.243,388.212 c -1,2.6 1,3.6 6.2,3.3 4.1,-0.3 4.9,-0.6 4.9,-2.3 0,-1.7 -0.8,-2 -5.3,-2.3 -4.1,-0.2 -5.4,0 -5.8,1.3 z"
       fill="#000000"
       id="path35" />
    <path
       d="m 434.843,392.712 c -1.9,1.9 -2,3.3 -2,24.5 v 22.6 l 2.5,2.4 2.4,2.5 h 21.9 c 20.2,0 22.2,-0.2 24.3,-1.9 2.4,-1.9 2.4,-1.9 2.4,-25.1 0,-23.2 0,-23.2 -2.4,-25.1 -2.1,-1.7 -4.2,-1.9 -24.7,-1.9 -21.1,0 -22.5,0.1 -24.4,2 z"
       fill="#000000"
       id="path36" />
    <path
       d="m 491.843,401.712 c 0,2 0.5,2.1 10.2,1.8 8.9,-0.3 10.3,-0.5 10.6,-2.1 0.3,-1.5 -0.7,-1.7 -10.2,-1.7 -10,0 -10.6,0.1 -10.6,2 z"
       fill="#000000"
       id="path37" />
    <path
       d="m 491.843,412.212 v 2.5 h 10 c 8.3,0 10.2,-0.3 10.7,-1.6 1,-2.6 -1.6,-3.4 -11.4,-3.4 -9.3,0 -9.3,0 -9.3,2.5 z"
       fill="#000000"
       id="path38" />
    <path
       d="m 406.243,422.212 c -1.199,2.9 0.701,3.5 11.201,3.5 h 10.4 v -2.5 -2.5 h -10.5 c -8.3,0 -10.701,0.3 -11.101,1.5 z"
       fill="#000000"
       id="path39" />
    <path
       d="m 491.843,423.412 c 0,2.2 0.4,2.3 8.5,2.3 h 8.5 l 0.2,18.7 c 0.3,17 0.5,18.8 2.1,19.1 1.6,0.3 1.7,-1.1 1.7,-19.2 0,-16 -0.3,-19.7 -1.5,-21 -1.8,-1.8 -8.2,-2.8 -14.7,-2.4 -4.2,0.3 -4.8,0.6 -4.8,2.5 z"
       fill="#000000"
       id="path40" />
    <path
       d="m 492.543,432.412 c -0.4,0.3 -0.7,1.5 -0.7,2.5 0,1.4 0.8,1.8 3.5,1.8 h 3.5 v 15.5 15.5 h -10 -9.9 l -0.3,-8.8 c -0.3,-7.9 -0.5,-8.7 -2.3,-8.7 -1.8,0 -2,0.8 -2.3,9.7 -0.3,12.2 -0.6,12 16,11.6 l 12.3,-0.3 0.3,-18.1 c 0.2,-13.7 -0.1,-18.4 -1,-19.1 -1.7,-1.4 -8.3,-2.5 -9.1,-1.6 z"
       fill="#000000"
       id="path41" />
    <path
       d="m 405.843,434.712 c 0,1.9 0.7,2 11,2 10.3,0 11,-0.1 11,-2 0,-1.9 -0.7,-2 -11,-2 -10.3,0 -11,0.1 -11,2 z"
       fill="#000000"
       id="path42" />
    <path
       d="m 406.043,446.912 c 0.3,2.1 0.9,2.3 6.4,2.6 4.5,0.2 6.4,-0.1 7.3,-1.2 2.2,-2.6 0.2,-3.6 -7,-3.6 -6.7,0 -7,0.1 -6.7,2.2 z"
       fill="#000000"
       id="path43" />
    <path
       d="m 440.843,460.712 c 0,11 0,11.1 2.3,10.8 2.1,-0.3 2.2,-0.7 2.2,-10.8 0,-10.1 -0.1,-10.5 -2.2,-10.8 -2.3,-0.3 -2.3,-0.2 -2.3,10.8 z"
       fill="#000000"
       id="path44" />
    <path
       d="m 451.843,460.212 c 0,8.6 0.3,10.7 1.5,11.2 0.9,0.3 1.8,0.4 2,0.2 0.2,-0.2 0.5,-5.1 0.7,-10.9 0.3,-10.2 0.2,-10.5 -1.9,-10.8 -2.3,-0.3 -2.3,-0.2 -2.3,10.3 z"
       fill="#000000"
       id="path45" />
    <path
       d="m 463.043,460.412 c 0.3,9.3 0.5,10.8 2.1,11.1 1.5,0.3 1.7,-0.7 1.7,-10.7 0,-10.5 -0.1,-11.1 -2,-11.1 -2,0 -2.1,0.5 -1.8,10.7 z"
       fill="#000000"
       id="path46" />
    <path
       d="m 405.743,459.312 c -0.6,0.7 -0.9,2.1 -0.7,3.1 0.3,1.4 1.3,1.8 5.3,1.8 4.9,0 5,0 5.5,3.5 0.4,2.7 1,3.5 2.5,3.5 1.7,0 2,-0.8 2.3,-5.1 0.2,-3.3 -0.2,-5.4 -1,-6.1 -2.1,-1.7 -12.6,-2.2 -13.9,-0.7 z"
       fill="#000000"
       id="path47" />
    <path
       d="m 422.544,459.412 c -1.5,1.5 -0.5,2.3 2.699,2.3 3.4,0 3.5,0.1 3.801,4.7 0.199,3.6 0.699,4.9 2.099,5.1 1.5,0.3 1.701,-0.5 1.701,-6.2 v -6.6 h -4.8 c -2.7,0 -5.2,0.3 -5.5,0.7 z"
       fill="#000000"
       id="path48" />
    <path
       d="m 146.343,599.612 c -8.9,4.1 -17.8,17.5 -23.6,35.8 -1.3,4 -2.6,7.3 -3,7.3 -0.4,0 -4.5,-0.9 -9.1,-2 -10.9,-2.7 -26.6,-3.6 -34.1,-2 -4.6,0.9 -6.8,2.1 -10.3,5.4 -4.3,4.2 -4.4,4.4 -4.4,10.8 0,9.4 5,19.1 16.9,32.4 l 9,10.2 -7.4,7.6 c -12.6,13 -18.4,23.4 -18.5,33.2 0,6.4 2.8,10.9 9,14.4 6.6,3.6 22.8,4.1 37,1 5.6,-1.2 10.7,-2.3 11.3,-2.6 0.7,-0.2 2.2,2.7 3.6,7.4 5.2,16.5 14,30.1 22.2,34.2 4.5,2.4 11.6,2.6 16.4,0.6 8.3,-3.5 17.5,-17.2 23,-34.4 2.1,-6.6 3,-8.2 4.3,-7.8 12.1,3.6 15.5,4 28.7,4.1 13,0 14.4,-0.2 18.9,-2.5 2.8,-1.4 5.9,-3.7 6.9,-5.1 2.5,-3.4 3.3,-10.6 1.7,-15.5 -2.3,-7.3 -9.3,-17.8 -17.6,-26.4 l -8.3,-8.6 5.5,-5.5 c 7.7,-7.5 14.1,-16.1 18,-24.4 6,-12.3 4.1,-21 -5.6,-26.5 -4.1,-2.3 -5.5,-2.5 -17,-2.5 -8.6,0 -15.2,0.6 -21,1.9 -12.8,2.8 -11.7,3.3 -14.9,-6.4 -5.6,-17.3 -13.4,-29 -22.2,-33.4 -6.2,-3.1 -9.9,-3.2 -15.4,-0.7 z m 12.4,8.6 c 5.9,3 13.9,16.5 18,30 1.1,3.8 1.9,7 1.8,7.1 -0.1,0.1 -5.9,2.5 -12.8,5.3 l -12.5,5.2 -7,-3.2 c -3.8,-1.7 -9.3,-4 -12.1,-5.1 -2.9,-1.1 -5.3,-2.6 -5.3,-3.3 0,-2.5 5.1,-15.8 8.7,-22.7 6.5,-12.4 13.9,-17.1 21.2,-13.3 z m -49.3,40.8 c 4.9,1.3 8.8,2.8 8.7,3.4 -0.1,0.6 -1,6.4 -1.9,12.9 -0.9,6.6 -2.2,12.2 -2.8,12.6 -0.6,0.3 -5.1,3.6 -10,7.3 l -9,6.6 -7.4,-7.8 c -8.3,-8.7 -14.5,-18.4 -16.4,-25.5 -1.1,-4.4 -1,-5 0.9,-7.5 1.1,-1.6 3.8,-3.4 5.9,-4 5.5,-1.8 21.1,-0.8 32,2 z m 119.9,-2.2 c 5.8,1.6 7.5,3.5 7.5,8.3 0,7.5 -7.7,20.1 -19.2,31.4 l -5.4,5.2 -3.9,-3.3 c -2.2,-1.8 -6.8,-5.3 -10.2,-7.7 -6,-4.1 -6.3,-4.5 -6.4,-8.4 0,-2.3 -0.6,-7.7 -1.3,-12.1 -0.8,-4.4 -1.2,-8.3 -1,-8.7 0.4,-0.7 16.6,-4.5 21.9,-5.1 6.5,-0.8 14.2,-0.6 18,0.4 z m -86.5,13.8 c 0,0.7 -18.2,10.3 -18.6,9.8 -0.3,-0.3 1.5,-13.1 2.1,-15.4 0.3,-0.8 3,-0.2 8.4,1.9 4.5,1.7 8.1,3.4 8.1,3.7 z m 39.5,3.5 0.8,6.8 -7.9,-4.3 c -11.9,-6.4 -11.9,-6.2 -2.8,-9.7 9.2,-3.5 8.7,-3.8 9.9,7.2 z m -15.2,7.8 c 6.6,3.5 13.3,7.5 14.8,9 l 2.9,2.6 v 13.4 c 0,9.2 -0.4,13.9 -1.2,15 -1.5,1.8 -15.7,10.4 -24,14.4 l -5.8,2.8 -5.7,-2.8 c -3.2,-1.5 -10.1,-5.2 -15.4,-8.2 -11.1,-6.2 -10.9,-5.8 -10.9,-20.9 0,-15.1 -0.2,-14.7 10.9,-20.9 13.1,-7.3 19.3,-10.5 21,-10.6 0.8,0 6.8,2.8 13.4,6.2 z m -53.3,25.3 c 0,4.7 -0.3,8.5 -0.7,8.5 -0.8,0 -11.3,-7.9 -11.3,-8.5 0,-0.6 10.3,-8.4 11.3,-8.4 0.4,-0.1 0.7,3.7 0.7,8.4 z m 85.7,-4.8 c 2.9,2 5.3,4.1 5.3,4.7 0,0.6 -1.3,2 -2.8,3 -1.5,1.1 -4.2,3.1 -5.9,4.4 l -3.3,2.4 v -9.1 c 0,-5 0.3,-9.1 0.7,-9.1 0.3,0 3,1.6 6,3.7 z m -98.5,15 c 3.5,2.7 7.9,5.9 9.9,7.2 3.4,2.3 3.6,2.8 4.9,11.5 2.6,17.9 2.7,16.3 -1.7,17.5 -21.5,6 -40.1,5 -43.5,-2.5 -2.6,-5.7 4.6,-18.9 17.5,-32.2 3.4,-3.4 6.2,-6.2 6.4,-6.2 0.1,0 3,2.1 6.5,4.7 z m 130.5,17.1 c 4.9,7.7 6.4,14.2 4.4,18 -1.8,3.4 -10.9,5.6 -20.5,4.9 -6.4,-0.4 -26.7,-4.3 -26.6,-5 0,-0.1 0.7,-3.8 1.5,-8.2 0.8,-4.4 1.4,-9.9 1.5,-12.2 0,-4 0.3,-4.4 5.8,-8.2 3.1,-2.1 7.7,-5.5 10.2,-7.5 l 4.5,-3.6 7.3,7.3 c 4,3.9 9.4,10.5 11.9,14.5 z m -88.7,9.3 c 0,0.7 -16,6.3 -16.4,5.8 -0.4,-0.6 -2.6,-13.3 -2.6,-15.1 0,-1.1 2.6,-0.1 9.5,3.6 5.2,2.8 9.5,5.4 9.5,5.7 z m 39.9,-7.4 c 0,4 -1.5,12.2 -2.2,12.9 -0.7,0.7 -15.7,-4.6 -15.7,-5.5 0.1,-0.6 16,-9.9 17.3,-10 0.4,-0.1 0.7,1.1 0.6,2.6 z m -17.4,16.8 c 6.1,2.5 11.6,4.5 12.3,4.5 1.7,0 1.6,0.8 -1.9,10.6 -7,19.8 -16,30.1 -24.4,28 -4.9,-1.2 -10.4,-7.6 -15,-17 -4.2,-8.8 -8.3,-20.3 -7.4,-20.9 1,-0.7 23.5,-9.6 24.4,-9.6 0.6,-0.1 6,1.9 12,4.4 z"
       fill="#000000"
       id="path49" />
    <path
       d="m 146.143,684.312 c -6.8,3.4 -9.7,11.8 -6.4,18.7 5.2,10.8 22.6,11.7 27.5,1.3 6.3,-13.2 -7.8,-26.5 -21.1,-20 z m 11.9,9.1 c 3.8,3.4 1.2,9.3 -4.1,9.3 -3.8,0 -6.3,-2.2 -6.3,-5.5 0,-5 6.5,-7.4 10.4,-3.8 z"
       fill="#000000"
       id="path50" />
  </g>
  <path
     style="font-size:624.548px;font-family:Orbitron-Bold;stroke-width:1.21982"
     d="m 1266.427,543.73721 q 0,46.65812 -38.7293,76.54372 -38.4243,29.8856 -105.2095,29.8856 -37.8144,0 -69.5297,-8.8437 -31.4104,-9.14865 -52.7573,-19.82208 v -64.34552 h 3.0496 q 27.141,20.43199 60.3811,32.63019 33.2401,11.89325 63.7356,11.89325 37.8144,0 59.1613,-12.1982 21.3468,-12.1982 21.3468,-38.42434 0,-20.12703 -11.5882,-30.49551 -11.5883,-10.36847 -44.5235,-17.68739 -12.1982,-2.7446 -32.0203,-6.40406 -19.5171,-3.65946 -35.6797,-7.92883 -44.8284,-11.89325 -63.7356,-34.76488 -18.6023,-23.17658 -18.6023,-56.72164 0,-21.0419 8.5388,-39.64416 8.8437,-18.60226 26.5311,-33.2401 17.0774,-14.33289 43.3036,-22.56667 26.5311,-8.53875 59.1613,-8.53875 30.4955,0 61.6009,7.62388 31.4104,7.31892 52.1473,17.99235 v 61.29597 h -3.0496 q -21.9567,-16.16262 -53.3671,-27.141 -31.4104,-11.28334 -61.6009,-11.28334 -31.4104,0 -53.0622,12.1982 -21.6518,11.89325 -21.6518,35.67975 0,21.04189 13.1131,31.71532 12.8081,10.67343 41.4739,17.38244 15.8576,3.65946 35.3747,7.31892 19.8221,3.65946 32.9352,6.70901 39.9491,9.14866 61.6009,31.41038 21.6518,22.56667 21.6518,59.77119 z m 333.9258,76.84867 q -28.6658,13.72298 -54.5869,21.34686 -25.6163,7.62388 -54.587,7.62388 -36.8996,0 -67.7,-10.67343 -30.8005,-10.97838 -52.7572,-32.93515 -22.2618,-21.95676 -34.46,-55.50182 -12.1982,-33.54506 -12.1982,-78.37345 0,-83.55769 45.7433,-131.13068 46.0482,-47.57299 121.3721,-47.57299 29.2757,0 57.3316,8.23379 28.3608,8.23378 51.8423,20.12703 v 63.73561 h -3.0495 q -26.2262,-20.43199 -54.282,-31.41037 -27.7509,-10.97838 -54.282,-10.97838 -48.7928,0 -77.1537,32.93514 -28.0558,32.63019 -28.0558,96.06085 0,61.60092 27.4459,94.84102 27.7509,32.93515 77.7636,32.93515 17.3824,0 35.3747,-4.57433 17.9924,-4.57432 32.3253,-11.89324 12.5031,-6.40406 23.4815,-13.41803 10.9784,-7.31892 17.3825,-12.50315 h 3.0495 z m 135.0951,-376.31455 h -64.6505 V 184.8051 h 64.6505 z m -3.6595,397.66141 h -57.3315 V 301.29793 h 57.3315 z m 398.2714,0 h -57.3316 V 447.98132 q 0,-23.48154 -2.7446,-43.91353 -2.7446,-20.73695 -10.0635,-32.32524 -7.6239,-12.80811 -21.9567,-18.90721 -14.3329,-6.40406 -37.2046,-6.40406 -23.4815,0 -49.0977,11.58829 -25.6163,11.5883 -49.0978,29.58064 v 254.33253 h -57.3315 V 301.29793 h 57.3315 v 37.81443 q 26.836,-22.26172 55.5018,-34.76488 28.6658,-12.50316 58.8564,-12.50316 55.1968,0 84.1676,33.24011 28.9707,33.2401 28.9707,95.75589 z m 395.5267,-164.37078 h -250.978 q 0,31.41037 9.4536,54.89191 9.4536,23.17659 25.9211,38.11938 15.8577,14.63785 37.5095,21.95677 21.9568,7.31892 48.1829,7.31892 34.7649,0 69.8347,-13.72298 35.3748,-14.02793 50.3176,-27.44595 h 3.0496 v 62.51578 q -28.9708,12.19821 -59.1613,20.43199 -30.1906,8.23379 -63.4307,8.23379 -84.7775,0 -132.3505,-45.74326 -47.573,-46.04821 -47.573,-130.52077 0,-83.55768 45.4383,-132.65545 45.7433,-49.09777 120.1523,-49.09777 68.9199,0 106.1244,40.25407 37.5095,40.25407 37.5095,114.35815 z m -55.8068,-43.91353 q -0.305,-45.13335 -22.8716,-69.83471 -22.2617,-24.70136 -68.005,-24.70136 -46.0482,0 -73.4942,27.141 -27.141,27.141 -30.8004,67.39507 z m 437.6105,208.28431 h -72.2743 l -96.6708,-130.82572 -97.2807,130.82572 h -66.7851 L 2707.3397,472.07277 2575.5991,301.29793 h 72.2743 l 96.0609,128.69104 96.3658,-128.69104 h 67.0901 l -133.8753,167.72529 z m 357.1024,0 h -57.3315 v -37.81443 q -28.9707,22.87163 -55.5018,35.06983 -26.5311,12.19821 -58.5514,12.19821 -53.6721,0 -83.5577,-32.6302 -29.8856,-32.93514 -29.8856,-96.3658 V 301.29793 h 57.3316 v 193.95142 q 0,25.92118 2.4396,44.52344 2.4396,18.29731 10.3685,31.41037 8.2338,13.41803 21.3468,19.51713 13.1131,6.0991 38.1194,6.0991 22.2617,0 48.4879,-11.58829 26.5311,-11.5883 49.4027,-29.58064 V 301.29793 h 57.3315 z m 356.1876,-98.19553 q 0,46.65812 -38.7293,76.54372 -38.4243,29.8856 -105.2095,29.8856 -37.8144,0 -69.5298,-8.8437 -31.4103,-9.14865 -52.7572,-19.82208 v -64.34552 h 3.0496 q 27.141,20.43199 60.3811,32.63019 33.2401,11.89325 63.7356,11.89325 37.8144,0 59.1613,-12.1982 21.3468,-12.1982 21.3468,-38.42434 0,-20.12703 -11.5883,-30.49551 -11.5883,-10.36847 -44.5234,-17.68739 -12.1982,-2.7446 -32.0203,-6.40406 -19.5171,-3.65946 -35.6797,-7.92883 -44.8284,-11.89325 -63.7356,-34.76488 -18.6023,-23.17658 -18.6023,-56.72164 0,-21.0419 8.5387,-39.64416 8.8437,-18.60226 26.5311,-33.2401 17.0775,-14.33289 43.3036,-22.56667 26.5311,-8.53875 59.1613,-8.53875 30.4955,0 61.601,7.62388 31.4103,7.31892 52.1473,17.99235 v 61.29597 h -3.0496 q -21.9567,-16.16262 -53.3671,-27.141 -31.4104,-11.28334 -61.6009,-11.28334 -31.4104,0 -53.0622,12.1982 -21.6518,11.89325 -21.6518,35.67975 0,21.04189 13.113,31.71532 12.8081,10.67343 41.4739,17.38244 15.8577,3.65946 35.3748,7.31892 19.8221,3.65946 32.9352,6.70901 39.9491,9.14866 61.6009,31.41038 21.6518,22.56667 21.6518,59.77119 z"
     id="text50"
     aria-label="scinexus" />
</svg>
